<svg xmlns="http://www.w3.org/2000/svg" version="1.1" xmlns:xlink="http://www.w3.org/1999/xlink" width="500" height="500"><svg width="500" height="500" viewBox="0 0 500 500" fill="none" xmlns="http://www.w3.org/2000/svg">
<path d="M500 250C500 111.929 388.071 0 250 0C111.929 0 0 111.929 0 250C0 388.071 111.929 500 250 500C388.071 500 500 388.071 500 250Z" fill="#171717"></path>
<path d="M326.125 318.875H335.875V380H156.25V370.25L176.875 368C180.875 367.5 183.25 366.5 184 365C184.75 363.5 185.125 358.375 185.125 349.625V155.375C185.125 146.625 184.75 141.5 184 140C183.25 138.5 180.875 137.5 176.875 137L156.25 135.125V125H331V186.125H321.625L310.75 146.75C310 143.75 309.125 141.625 308.125 140.375C307.375 138.875 305.75 138 303.25 137.75C300.75 137.25 296.5 137 290.5 137H217.75V245.375H268C274 245.375 278.25 245.25 280.75 245C283.25 244.5 284.875 243.625 285.625 242.375C286.625 240.875 287.5 238.625 288.25 235.625L295.375 207.5H305.125V295.25H295.375L288.25 267.125C287.5 264.125 286.625 262 285.625 260.75C284.875 259.25 283.25 258.375 280.75 258.125C278.25 257.625 274 257.375 268 257.375H217.75V368H295C301 368 305.25 367.875 307.75 367.625C310.25 367.125 311.875 366.25 312.625 365C313.625 363.5 314.5 361.25 315.25 358.25L326.125 318.875Z" fill="white"></path>
</svg><style>@media (prefers-color-scheme: light) { :root { filter: none; } }
@media (prefers-color-scheme: dark) { :root { filter: none; } }
</style></svg>